<mxfile host="app.diagrams.net" agent="Mozilla/5.0 (X11; Linux x86_64) AppleWebKit/537.36 (KHTML, like Gecko) Chrome/129.0.0.0 Safari/537.36" version="24.8.3">
  <diagram name="Pàgina-1" id="mhbHxmUa4zc_a_H4eHv1">
    <mxGraphModel dx="2074" dy="1146" grid="1" gridSize="10" guides="1" tooltips="1" connect="1" arrows="1" fold="1" page="1" pageScale="1" pageWidth="827" pageHeight="1169" math="0" shadow="0">
      <root>
        <mxCell id="0" />
        <mxCell id="1" parent="0" />
        <mxCell id="Yuy-bMXGTU9GAa7qO0-3-3" value="&lt;i style=&quot;font-size: 16px;&quot;&gt;&lt;font style=&quot;font-size: 12px;&quot;&gt;Commit inicial&lt;/font&gt;&lt;/i&gt;" style="ellipse;whiteSpace=wrap;html=1;fillColor=#f5f5f5;fontColor=#333333;strokeColor=#666666;" vertex="1" parent="1">
          <mxGeometry x="90" y="610" width="60" height="60" as="geometry" />
        </mxCell>
        <mxCell id="Yuy-bMXGTU9GAa7qO0-3-4" style="rounded=0;orthogonalLoop=1;jettySize=auto;html=1;" edge="1" parent="1" source="Yuy-bMXGTU9GAa7qO0-3-5" target="Yuy-bMXGTU9GAa7qO0-3-3">
          <mxGeometry relative="1" as="geometry" />
        </mxCell>
        <mxCell id="Yuy-bMXGTU9GAa7qO0-3-5" value="&lt;i style=&quot;font-size: 16px;&quot;&gt;&lt;font style=&quot;font-size: 12px;&quot;&gt;Menjar&lt;/font&gt;&lt;/i&gt;" style="ellipse;whiteSpace=wrap;html=1;fillColor=#f5f5f5;fontColor=#333333;strokeColor=#666666;" vertex="1" parent="1">
          <mxGeometry x="330" y="610" width="60" height="60" as="geometry" />
        </mxCell>
        <mxCell id="Yuy-bMXGTU9GAa7qO0-3-6" style="rounded=0;orthogonalLoop=1;jettySize=auto;html=1;exitX=0.5;exitY=1;exitDx=0;exitDy=0;fillColor=#dae8fc;strokeColor=#6c8ebf;" edge="1" parent="1" source="Yuy-bMXGTU9GAa7qO0-3-7" target="Yuy-bMXGTU9GAa7qO0-3-5">
          <mxGeometry relative="1" as="geometry">
            <mxPoint x="319" y="630" as="targetPoint" />
          </mxGeometry>
        </mxCell>
        <mxCell id="Yuy-bMXGTU9GAa7qO0-3-7" value="menjar" style="ellipse;whiteSpace=wrap;html=1;fillColor=#dae8fc;strokeColor=#6c8ebf;fontSize=16;fontStyle=1" vertex="1" parent="1">
          <mxGeometry x="240" y="545" width="100" height="40" as="geometry" />
        </mxCell>
        <mxCell id="Yuy-bMXGTU9GAa7qO0-3-8" value="&lt;i style=&quot;font-size: 16px;&quot;&gt;&lt;font style=&quot;font-size: 12px;&quot;&gt;Beguda&lt;/font&gt;&lt;/i&gt;" style="ellipse;whiteSpace=wrap;html=1;fillColor=#f5f5f5;fontColor=#333333;strokeColor=#666666;" vertex="1" parent="1">
          <mxGeometry x="330" y="770" width="60" height="60" as="geometry" />
        </mxCell>
        <mxCell id="Yuy-bMXGTU9GAa7qO0-3-9" style="rounded=0;orthogonalLoop=1;jettySize=auto;html=1;exitX=0.5;exitY=1;exitDx=0;exitDy=0;fillColor=#dae8fc;strokeColor=#6c8ebf;" edge="1" parent="1" source="Yuy-bMXGTU9GAa7qO0-3-10" target="Yuy-bMXGTU9GAa7qO0-3-8">
          <mxGeometry relative="1" as="geometry">
            <mxPoint x="279" y="775" as="targetPoint" />
          </mxGeometry>
        </mxCell>
        <mxCell id="Yuy-bMXGTU9GAa7qO0-3-10" value="beguda" style="ellipse;whiteSpace=wrap;html=1;fillColor=#dae8fc;strokeColor=#6c8ebf;fontSize=16;fontStyle=1" vertex="1" parent="1">
          <mxGeometry x="310" y="700" width="100" height="40" as="geometry" />
        </mxCell>
        <mxCell id="Yuy-bMXGTU9GAa7qO0-3-11" style="rounded=0;orthogonalLoop=1;jettySize=auto;html=1;" edge="1" parent="1" source="Yuy-bMXGTU9GAa7qO0-3-8" target="Yuy-bMXGTU9GAa7qO0-3-3">
          <mxGeometry relative="1" as="geometry">
            <mxPoint x="365" y="588.5" as="sourcePoint" />
            <mxPoint x="217" y="731.5" as="targetPoint" />
          </mxGeometry>
        </mxCell>
        <mxCell id="Yuy-bMXGTU9GAa7qO0-3-14" value="&lt;font color=&quot;#0066cc&quot; style=&quot;font-size: 14px;&quot;&gt;&lt;b&gt;Ancestre comú&lt;/b&gt;&lt;/font&gt;" style="text;html=1;strokeColor=none;fillColor=none;align=center;verticalAlign=middle;whiteSpace=wrap;rounded=0;fontStyle=2" vertex="1" parent="1">
          <mxGeometry x="90" y="685" width="60" height="30" as="geometry" />
        </mxCell>
        <mxCell id="Yuy-bMXGTU9GAa7qO0-3-15" value="&lt;i style=&quot;font-size: 16px;&quot;&gt;&lt;font style=&quot;font-size: 12px;&quot;&gt;Merge commit&lt;/font&gt;&lt;/i&gt;" style="ellipse;whiteSpace=wrap;html=1;fillColor=#f5f5f5;fontColor=#333333;strokeColor=#666666;" vertex="1" parent="1">
          <mxGeometry x="565" y="610" width="60" height="60" as="geometry" />
        </mxCell>
        <mxCell id="Yuy-bMXGTU9GAa7qO0-3-16" style="rounded=0;orthogonalLoop=1;jettySize=auto;html=1;exitX=0.5;exitY=1;exitDx=0;exitDy=0;fillColor=#d5e8d4;strokeColor=#82b366;" edge="1" parent="1" source="Yuy-bMXGTU9GAa7qO0-3-17" target="Yuy-bMXGTU9GAa7qO0-3-15">
          <mxGeometry relative="1" as="geometry">
            <mxPoint x="642" y="570" as="targetPoint" />
          </mxGeometry>
        </mxCell>
        <mxCell id="Yuy-bMXGTU9GAa7qO0-3-17" value="main" style="ellipse;whiteSpace=wrap;html=1;fillColor=#d5e8d4;strokeColor=#82b366;fontSize=16;fontStyle=1" vertex="1" parent="1">
          <mxGeometry x="545" y="540" width="100" height="40" as="geometry" />
        </mxCell>
        <mxCell id="Yuy-bMXGTU9GAa7qO0-3-18" style="edgeStyle=orthogonalEdgeStyle;rounded=0;orthogonalLoop=1;jettySize=auto;html=1;exitX=0.5;exitY=1;exitDx=0;exitDy=0;fillColor=#f5f5f5;strokeColor=#666666;" edge="1" parent="1" source="Yuy-bMXGTU9GAa7qO0-3-19" target="Yuy-bMXGTU9GAa7qO0-3-17">
          <mxGeometry relative="1" as="geometry">
            <mxPoint x="595" y="540" as="targetPoint" />
          </mxGeometry>
        </mxCell>
        <mxCell id="Yuy-bMXGTU9GAa7qO0-3-19" value="HEAD" style="ellipse;whiteSpace=wrap;html=1;fillColor=#f5f5f5;strokeColor=#666666;fontSize=16;fontStyle=1;fontColor=#333333;" vertex="1" parent="1">
          <mxGeometry x="545" y="470" width="100" height="40" as="geometry" />
        </mxCell>
        <mxCell id="Yuy-bMXGTU9GAa7qO0-3-20" style="rounded=0;orthogonalLoop=1;jettySize=auto;html=1;exitX=0.5;exitY=1;exitDx=0;exitDy=0;fillColor=#d5e8d4;strokeColor=#82b366;opacity=50;dashed=1;textOpacity=50;" edge="1" parent="1" source="Yuy-bMXGTU9GAa7qO0-3-21" target="Yuy-bMXGTU9GAa7qO0-3-5">
          <mxGeometry relative="1" as="geometry">
            <mxPoint x="384" y="612" as="targetPoint" />
          </mxGeometry>
        </mxCell>
        <mxCell id="Yuy-bMXGTU9GAa7qO0-3-21" value="main" style="ellipse;whiteSpace=wrap;html=1;fillColor=#d5e8d4;strokeColor=#82b366;fontSize=16;fontStyle=1;opacity=50;dashed=1;textOpacity=50;" vertex="1" parent="1">
          <mxGeometry x="370" y="545" width="100" height="40" as="geometry" />
        </mxCell>
        <mxCell id="Yuy-bMXGTU9GAa7qO0-3-22" style="edgeStyle=orthogonalEdgeStyle;rounded=0;orthogonalLoop=1;jettySize=auto;html=1;exitX=0.5;exitY=1;exitDx=0;exitDy=0;fillColor=#f5f5f5;strokeColor=#666666;entryX=0.5;entryY=0;entryDx=0;entryDy=0;opacity=50;dashed=1;textOpacity=50;" edge="1" parent="1" source="Yuy-bMXGTU9GAa7qO0-3-23" target="Yuy-bMXGTU9GAa7qO0-3-21">
          <mxGeometry relative="1" as="geometry" />
        </mxCell>
        <mxCell id="Yuy-bMXGTU9GAa7qO0-3-23" value="HEAD" style="ellipse;whiteSpace=wrap;html=1;fillColor=#f5f5f5;strokeColor=#666666;fontSize=16;fontStyle=1;fontColor=#333333;opacity=50;dashed=1;textOpacity=50;" vertex="1" parent="1">
          <mxGeometry x="370" y="470" width="100" height="40" as="geometry" />
        </mxCell>
        <mxCell id="Yuy-bMXGTU9GAa7qO0-3-24" style="rounded=0;orthogonalLoop=1;jettySize=auto;html=1;" edge="1" parent="1" source="Yuy-bMXGTU9GAa7qO0-3-15" target="Yuy-bMXGTU9GAa7qO0-3-8">
          <mxGeometry relative="1" as="geometry">
            <mxPoint x="345" y="873" as="sourcePoint" />
            <mxPoint x="225" y="787" as="targetPoint" />
          </mxGeometry>
        </mxCell>
        <mxCell id="Yuy-bMXGTU9GAa7qO0-3-25" style="rounded=0;orthogonalLoop=1;jettySize=auto;html=1;" edge="1" parent="1" source="Yuy-bMXGTU9GAa7qO0-3-15" target="Yuy-bMXGTU9GAa7qO0-3-5">
          <mxGeometry relative="1" as="geometry">
            <mxPoint x="535" y="786" as="sourcePoint" />
            <mxPoint x="395" y="874" as="targetPoint" />
          </mxGeometry>
        </mxCell>
        <mxCell id="Yuy-bMXGTU9GAa7qO0-3-26" value="" style="endArrow=classic;html=1;rounded=0;strokeWidth=3;fillColor=#dae8fc;strokeColor=#6c8ebf;" edge="1" parent="1">
          <mxGeometry width="50" height="50" relative="1" as="geometry">
            <mxPoint x="440" y="530" as="sourcePoint" />
            <mxPoint x="565" y="530" as="targetPoint" />
          </mxGeometry>
        </mxCell>
      </root>
    </mxGraphModel>
  </diagram>
</mxfile>
